/* XPM */
static char * Minibloq_xpm[] = {
"32 32 77 1",
" 	c None",
".	c #DEDEDE",
"+	c #3F3F3F",
"@	c #787878",
"#	c #171717",
"$	c #000000",
"%	c #FFFF00",
"&	c #D1FFE4",
"*	c #D0FFE3",
"=	c #DADADA",
"-	c #C8C8FF",
";	c #C7C7FF",
">	c #55FF99",
",	c #74FFAC",
"'	c #73FFAB",
")	c #6F6F6F",
"!	c #7C7C7C",
"~	c #7B7B7B",
"{	c #3838FF",
"]	c #5858FF",
"^	c #5757FF",
"/	c #26E774",
"(	c #151515",
"_	c #00FF00",
":	c #0000E7",
"<	c #20C462",
"[	c #0000C4",
"}	c #1BA452",
"|	c #0000A4",
"1	c #158141",
"2	c #000081",
"3	c #0F5E2F",
"4	c #00005E",
"5	c #0A3C1E",
"6	c #00003C",
"7	c #D4FFE6",
"8	c #DDDDDD",
"9	c #CCCCE6",
"0	c #2EFF82",
"a	c #6FFFA9",
"b	c #464646",
"c	c #777777",
"d	c #070783",
"e	c #5353A9",
"f	c #26E573",
"g	c #141414",
"h	c #000073",
"i	c #20C261",
"j	c #000061",
"k	c #1BA352",
"l	c #000052",
"m	c #158040",
"n	c #000040",
"o	c #0F5D2F",
"p	c #00002F",
"q	c #0A3D1F",
"r	c #00001F",
"s	c #E3C7E3",
"t	c #FFDDC7",
"u	c #800080",
"v	c #A74EA7",
"w	c #A64DA6",
"x	c #FF6600",
"y	c #FF954E",
"z	c #FF944D",
"A	c #720072",
"B	c #E45B00",
"C	c #620062",
"D	c #C44E00",
"E	c #510051",
"F	c #A14000",
"G	c #3F003F",
"H	c #7E3200",
"I	c #2F002F",
"J	c #5E2600",
"K	c #1E001E",
"L	c #3B1800",
"........                        ",
"+@@@@@@@                        ",
"########                        ",
"$$%%%%$$                        ",
"$$$%%$$$                        ",
"$$$$$$$$                        ",
"$$$$$$$$                        ",
"$$$$$$$$                        ",
"&&&&&&&*========-------;        ",
">,,,,,,')!!!!!!~{]]]]]]^        ",
"////////((((_(((::::::::        ",
"<<<<<<<<$$$__$$$[[[[[[[[        ",
"}}}}}}}}$$$__$$$||||||||        ",
"11111111$$$$_$$$22222222        ",
"33333333$$$$$$$$44444444        ",
"55555555$$$$$$$$66666666        ",
"777777778888888899999999        ",
"0aaaaaaabcccccccdeeeeeee        ",
"ffffffffgggg_ggghhhh_hhh        ",
"iiiiiiii$$$__$$$jjj__jjj        ",
"kkkkkkkk$$$__$$$lll__lll        ",
"mmmmmmmm$$$$_$$$nnnn_nnn        ",
"oooooooo$$$$$$$$pppppppp        ",
"qqqqqqqq$$$$$$$$rrrrrrrr        ",
"sssssssstttttttt                ",
"uvvvvwwwxyyyyzzz                ",
"AAAAAAAABBBBBBBB                ",
"CCCCCCCCDD%%%%DD                ",
"EEEEEEEEFFF%%FFF                ",
"GGGGGGGGHHHHHHHH                ",
"IIIIIIIIJJJJJJJJ                ",
"KKKKKKKKLLLLLLLL                "};
