<?xml version="1.0" encoding="UTF-8" standalone="no"?>
<!-- Created with Inkscape (http://www.inkscape.org/) -->

<svg
   xmlns:dc="http://purl.org/dc/elements/1.1/"
   xmlns:cc="http://creativecommons.org/ns#"
   xmlns:rdf="http://www.w3.org/1999/02/22-rdf-syntax-ns#"
   xmlns:svg="http://www.w3.org/2000/svg"
   xmlns="http://www.w3.org/2000/svg"
   xmlns:xlink="http://www.w3.org/1999/xlink"
   xmlns:sodipodi="http://sodipodi.sourceforge.net/DTD/sodipodi-0.dtd"
   xmlns:inkscape="http://www.inkscape.org/namespaces/inkscape"
   width="210mm"
   height="297mm"
   id="svg2996"
   version="1.1"
   inkscape:version="0.48.0 r9654"
   sodipodi:docname="Source.svg">
  <defs
     id="defs2998">
    <linearGradient
       inkscape:collect="always"
       xlink:href="#linearGradient4212"
       id="linearGradient4222"
       gradientUnits="userSpaceOnUse"
       x1="273.23456"
       y1="284.34067"
       x2="273.25"
       y2="365.46875"
       gradientTransform="matrix(0.68309177,0,0,0.85042638,-7.1126862,84.201703)" />
    <linearGradient
       id="linearGradient4212">
      <stop
         style="stop-color:#ffffff;stop-opacity:1;"
         offset="0"
         id="stop4214" />
      <stop
         style="stop-color:#ffffff;stop-opacity:0;"
         offset="1"
         id="stop4216" />
    </linearGradient>
    <linearGradient
       inkscape:collect="always"
       xlink:href="#linearGradient4196"
       id="linearGradient4228"
       gradientUnits="userSpaceOnUse"
       x1="273.24628"
       y1="632.13873"
       x2="273.24628"
       y2="349.29602"
       gradientTransform="matrix(0.68309177,0,0,0.85042638,-7.1126862,84.201703)" />
    <linearGradient
       inkscape:collect="always"
       id="linearGradient4196">
      <stop
         style="stop-color:#000000;stop-opacity:1;"
         offset="0"
         id="stop4198" />
      <stop
         style="stop-color:#000000;stop-opacity:0;"
         offset="1"
         id="stop4200" />
    </linearGradient>
    <linearGradient
       inkscape:collect="always"
       xlink:href="#linearGradient4212-4"
       id="linearGradient4222-7"
       gradientUnits="userSpaceOnUse"
       x1="273.23456"
       y1="284.34067"
       x2="273.25"
       y2="365.46875"
       gradientTransform="matrix(0.68309183,0,0,0.85042645,-9.8067191,-214.83542)" />
    <linearGradient
       id="linearGradient4212-4">
      <stop
         style="stop-color:#ffffff;stop-opacity:1;"
         offset="0"
         id="stop4214-0" />
      <stop
         style="stop-color:#ffffff;stop-opacity:0;"
         offset="1"
         id="stop4216-9" />
    </linearGradient>
    <linearGradient
       inkscape:collect="always"
       xlink:href="#linearGradient4196-8"
       id="linearGradient4228-4"
       gradientUnits="userSpaceOnUse"
       x1="273.24628"
       y1="632.13873"
       x2="273.24628"
       y2="349.29602"
       gradientTransform="matrix(0.68309183,0,0,0.85042645,-9.8067191,-214.83542)" />
    <linearGradient
       inkscape:collect="always"
       id="linearGradient4196-8">
      <stop
         style="stop-color:#000000;stop-opacity:1;"
         offset="0"
         id="stop4198-8" />
      <stop
         style="stop-color:#000000;stop-opacity:0;"
         offset="1"
         id="stop4200-2" />
    </linearGradient>
    <linearGradient
       inkscape:collect="always"
       xlink:href="#linearGradient4196-8"
       id="linearGradient3096"
       gradientUnits="userSpaceOnUse"
       gradientTransform="matrix(0.68309183,0,0,0.85042645,-372.87163,-1141.186)"
       x1="273.24628"
       y1="632.13873"
       x2="273.24628"
       y2="349.29602" />
    <linearGradient
       inkscape:collect="always"
       xlink:href="#linearGradient4212-4"
       id="linearGradient3098"
       gradientUnits="userSpaceOnUse"
       gradientTransform="matrix(-0.68309088,-0.00114147,0.00142109,-0.85042526,370.96415,1141.8075)"
       x1="273.23456"
       y1="284.34067"
       x2="273.25"
       y2="365.46875" />
    <linearGradient
       inkscape:collect="always"
       xlink:href="#linearGradient4196-8"
       id="linearGradient3115"
       gradientUnits="userSpaceOnUse"
       gradientTransform="matrix(0.68309183,0,0,0.85042645,-9.8067191,-214.83542)"
       x1="273.24628"
       y1="632.13873"
       x2="273.24628"
       y2="349.29602" />
    <linearGradient
       inkscape:collect="always"
       xlink:href="#linearGradient4212-4"
       id="linearGradient3117"
       gradientUnits="userSpaceOnUse"
       gradientTransform="matrix(0.68309183,0,0,0.85042645,-9.8067191,-214.83542)"
       x1="273.23456"
       y1="284.34067"
       x2="273.25"
       y2="365.46875" />
    <linearGradient
       inkscape:collect="always"
       xlink:href="#linearGradient4196"
       id="linearGradient3119"
       gradientUnits="userSpaceOnUse"
       gradientTransform="matrix(0.68309177,0,0,0.85042638,-7.1126862,84.201703)"
       x1="273.24628"
       y1="632.13873"
       x2="273.24628"
       y2="349.29602" />
    <linearGradient
       inkscape:collect="always"
       xlink:href="#linearGradient4212"
       id="linearGradient3121"
       gradientUnits="userSpaceOnUse"
       gradientTransform="matrix(0.68309177,0,0,0.85042638,-7.1126862,84.201703)"
       x1="273.23456"
       y1="284.34067"
       x2="273.25"
       y2="365.46875" />
    <linearGradient
       gradientTransform="matrix(0.80323326,0,0,0.9999985,16.894975,8.7571355e-4)"
       y2="349.29602"
       x2="273.24628"
       y1="632.13873"
       x1="273.24628"
       gradientUnits="userSpaceOnUse"
       id="linearGradient4228-7"
       xlink:href="#linearGradient4196-2"
       inkscape:collect="always" />
    <linearGradient
       gradientTransform="matrix(0.80323326,0,0,0.9999985,16.894975,8.7571355e-4)"
       y2="365.46875"
       x2="273.25"
       y1="284.34067"
       x1="273.23456"
       gradientUnits="userSpaceOnUse"
       id="linearGradient4222-3"
       xlink:href="#linearGradient4212-3"
       inkscape:collect="always" />
    <linearGradient
       gradientUnits="userSpaceOnUse"
       y2="365.46875"
       x2="273.25"
       y1="282.625"
       x1="273.25"
       id="linearGradient4218"
       xlink:href="#linearGradient4212-3"
       inkscape:collect="always" />
    <linearGradient
       gradientUnits="userSpaceOnUse"
       y2="492.73767"
       x2="273.24628"
       y1="632.13873"
       x1="273.24628"
       id="linearGradient4202"
       xlink:href="#linearGradient4196-2"
       inkscape:collect="always" />
    <inkscape:perspective
       id="perspective4188"
       inkscape:persp3d-origin="372.04724 : 350.78739 : 1"
       inkscape:vp_z="744.09448 : 526.18109 : 1"
       inkscape:vp_y="0 : 1000 : 0"
       inkscape:vp_x="0 : 526.18109 : 1"
       sodipodi:type="inkscape:persp3d" />
    <linearGradient
       id="linearGradient4196-2"
       inkscape:collect="always">
      <stop
         id="stop4198-5"
         offset="0"
         style="stop-color:#000000;stop-opacity:1;" />
      <stop
         id="stop4200-20"
         offset="1"
         style="stop-color:#000000;stop-opacity:0;" />
    </linearGradient>
    <linearGradient
       id="linearGradient4212-3">
      <stop
         id="stop4214-03"
         offset="0"
         style="stop-color:#ffffff;stop-opacity:1;" />
      <stop
         id="stop4216-8"
         offset="1"
         style="stop-color:#ffffff;stop-opacity:0;" />
    </linearGradient>
    <linearGradient
       inkscape:collect="always"
       xlink:href="#linearGradient4196-2"
       id="linearGradient3079"
       gradientUnits="userSpaceOnUse"
       gradientTransform="matrix(0.80323326,0,0,0.9999985,16.894975,8.7571355e-4)"
       x1="273.24628"
       y1="632.13873"
       x2="273.24628"
       y2="349.29602" />
    <linearGradient
       inkscape:collect="always"
       xlink:href="#linearGradient4212-3"
       id="linearGradient3081"
       gradientUnits="userSpaceOnUse"
       gradientTransform="matrix(0.80323326,0,0,0.9999985,16.894975,8.7571355e-4)"
       x1="273.23456"
       y1="284.34067"
       x2="273.25"
       y2="365.46875" />
    <linearGradient
       inkscape:collect="always"
       xlink:href="#linearGradient4196-2"
       id="linearGradient3091"
       gradientUnits="userSpaceOnUse"
       gradientTransform="matrix(0.80323326,0,0,0.9999985,16.894975,8.7571355e-4)"
       x1="273.24628"
       y1="632.13873"
       x2="273.24628"
       y2="349.29602" />
    <linearGradient
       inkscape:collect="always"
       xlink:href="#linearGradient4212-3"
       id="linearGradient3093"
       gradientUnits="userSpaceOnUse"
       gradientTransform="matrix(0.80323326,0,0,0.9999985,16.894975,8.7571355e-4)"
       x1="273.23456"
       y1="284.34067"
       x2="273.25"
       y2="365.46875" />
  </defs>
  <sodipodi:namedview
     id="base"
     pagecolor="#ffffff"
     bordercolor="#666666"
     borderopacity="1.0"
     inkscape:pageopacity="0.0"
     inkscape:pageshadow="2"
     inkscape:zoom="0.35391971"
     inkscape:cx="-238.34728"
     inkscape:cy="581.4128"
     inkscape:document-units="px"
     inkscape:current-layer="layer1"
     showgrid="false"
     inkscape:window-width="1280"
     inkscape:window-height="720"
     inkscape:window-x="-8"
     inkscape:window-y="-8"
     inkscape:window-maximized="1"
     showguides="false" />
  <metadata
     id="metadata3001">
    <rdf:RDF>
      <cc:Work
         rdf:about="">
        <dc:format>image/svg+xml</dc:format>
        <dc:type
           rdf:resource="http://purl.org/dc/dcmitype/StillImage" />
        <dc:title />
      </cc:Work>
    </rdf:RDF>
  </metadata>
  <g
     inkscape:label="Capa 1"
     inkscape:groupmode="layer"
     id="layer1">
    <g
       id="g3105"
       transform="translate(5.3880447,10.776138)"
       inkscape:export-filename="C:\Projects\Multiplo\Soft\Minibloq-RG\v1.0\Soft\Bin\Minibloq-RG.v1.0\Components\Minibloq\v1.0\Libs\CPP\Bloqs\CPP_while.v1.0\Images\BlockHover.png"
       inkscape:export-xdpi="90"
       inkscape:export-ydpi="90">
      <rect
         ry="21.260658"
         rx="17.077293"
         y="324.55423"
         x="51.539597"
         height="256"
         width="256"
         id="rect4190"
         style="fill:#008080;fill-opacity:1;stroke:none" />
      <rect
         style="fill:url(#linearGradient3119);fill-opacity:1;stroke:none"
         id="rect4194"
         width="256"
         height="256"
         x="51.539597"
         y="324.55423"
         rx="17.077293"
         ry="21.260658" />
      <path
         id="path4206"
         d="m 67.813933,326.2809 c -9.23114,0.20644 -16.268233,11.78137 -14.899932,22.93493 0,5.53663 0,11.07325 0,16.60989 32.626142,16.89505 68.248719,22.83438 103.357359,26.05021 48.76246,3.5446 98.31011,0.81506 145.77764,-13.96321 5.38078,0.26636 4.10085,-5.8715 4.12129,-10.73164 -0.62804,-9.59554 1.36747,-19.74667 -1.21676,-28.96764 -2.84716,-9.10962 -11.16411,-13.28902 -18.5929,-11.95911 -72.84869,0.0183 -145.69906,-0.0354 -218.546697,0.0264 z"
         style="fill:url(#linearGradient3121);fill-opacity:1;stroke:none"
         inkscape:connector-curvature="0" />
    </g>
    <g
       id="g3910"
       transform="translate(350.55109,0)">
      <path
         d="m -1280.8735,599.81384 c 0,156.20972 -126.633,282.84272 -282.8427,282.84272 -156.2097,0 -282.8427,-126.633 -282.8427,-282.84272 0,-156.20971 126.633,-282.84271 282.8427,-282.84271 156.2097,0 282.8427,126.633 282.8427,282.84271 z"
         sodipodi:ry="282.84271"
         sodipodi:rx="282.84271"
         sodipodi:cy="599.81384"
         sodipodi:cx="-1563.7162"
         id="path3912"
         style="fill:#ff6600;fill-opacity:1;stroke:#004959;stroke-width:0.35433072;stroke-miterlimit:4;stroke-opacity:1;stroke-dasharray:none"
         sodipodi:type="arc"
         transform="matrix(0.2611133,0,0,-0.2611133,593.23474,310.13654)" />
      <path
         inkscape:connector-curvature="0"
         id="path3915"
         d="m 184.9246,210.25356 c -31.33404,0 -56.72976,-25.40249 -56.72976,-56.73648 l 56.72976,0 37.77515,42.33119 c -0.22477,0.20063 -0.4536,0.40003 -0.68107,0.59672 -0.27397,0.23709 -0.54974,0.47017 -0.82867,0.70202 -0.12367,0.10309 -0.24689,0.20694 -0.37191,0.3089 -0.0361,0.0284 -0.0704,0.0558 -0.10516,0.0842 -0.0406,0.0325 -0.079,0.0659 -0.11915,0.0983 -0.29744,0.24016 -0.59758,0.4753 -0.89863,0.70901 -0.33986,0.26327 -0.68062,0.52419 -1.025,0.77924 -0.005,0 -0.005,0.005 -0.005,0.007 -0.005,0.005 -0.0135,0.009 -0.0181,0.014 -0.34076,0.25185 -0.67927,0.50045 -1.02545,0.74417 -1.41044,0.99435 -2.86377,1.92191 -4.3523,2.77996 -0.3719,0.21452 -0.74652,0.42598 -1.12339,0.63179 -6.02543,3.29336 -12.61549,5.4724 -19.44521,6.41638 -0.42697,0.059 -0.8562,0.11216 -1.28498,0.16149 -0.36288,0.0415 -0.72395,0.0775 -1.08773,0.1123 -0.0659,0.006 -0.13134,0.0149 -0.19724,0.0212 -0.31549,0.0289 -0.63098,0.0535 -0.94692,0.0773 -0.34573,0.0257 -0.69281,0.0438 -1.03899,0.0632 -0.15707,0.009 -0.31368,0.0208 -0.47075,0.028 -0.0451,0 -0.0889,0.005 -0.13315,0.007 -0.37958,0.0176 -0.76412,0.0325 -1.1446,0.042 -0.48655,0.0122 -0.97716,0.0212 -1.46732,0.0212 z m 0,-56.73648 -37.76839,-42.33124 c 0.056,-0.0497 0.11284,-0.0978 0.1688,-0.14741 0.22883,-0.20296 0.46218,-0.40444 0.69507,-0.60371 0.12593,-0.10792 0.2523,-0.21624 0.37868,-0.32294 0.22161,-0.1864 0.44322,-0.37145 0.66708,-0.55461 0.0654,-0.0535 0.13044,-0.10819 0.19634,-0.16144 0.29698,-0.24012 0.59712,-0.47531 0.89862,-0.70902 0.33896,-0.26336 0.67972,-0.52347 1.025,-0.77924 0.009,-0.007 0.0181,-0.014 0.0271,-0.0212 0.34077,-0.25175 0.67927,-0.50044 1.025,-0.74417 1.4109,-0.99435 2.86422,-1.92191 4.3523,-2.77996 0.37191,-0.21448 0.74652,-0.42593 1.1234,-0.63179 6.02588,-3.29336 12.61639,-5.4724 19.44566,-6.41638 0.42697,-0.059 0.8562,-0.11211 1.28497,-0.16149 0.36288,-0.042 0.72351,-0.0775 1.08819,-0.11229 0.23154,-0.0221 0.46218,-0.0438 0.69462,-0.0632 0.14939,-0.0126 0.29924,-0.0239 0.44954,-0.0352 0.34482,-0.0257 0.6919,-0.0438 1.03899,-0.0631 0.15661,-0.009 0.31323,-0.0208 0.46985,-0.028 0.0451,0 0.0894,-0.005 0.13359,-0.007 0.38139,-0.0176 0.76142,-0.0325 1.14461,-0.042 0.4861,-0.0126 0.97039,-0.0212 1.46009,-0.0212 0.48926,0 0.98077,0.009 1.46687,0.0212 0.48655,0.0126 0.96948,0.0316 1.45332,0.0561 29.97685,1.51959 53.81634,26.30441 53.81634,56.65922 l -56.73653,0 z"
         style="fill:#008000;fill-opacity:1;stroke:#004959;stroke-width:0.07107499;stroke-miterlimit:4;stroke-opacity:1;stroke-dasharray:none" />
      <path
         transform="matrix(0.14286018,0,0,-0.14286018,408.32044,239.20668)"
         sodipodi:type="arc"
         style="fill:#ff6600;fill-opacity:1;stroke:none"
         id="path3917"
         sodipodi:cx="-1563.7162"
         sodipodi:cy="599.81384"
         sodipodi:rx="282.84271"
         sodipodi:ry="282.84271"
         d="m -1280.8735,599.81384 c 0,156.20972 -126.633,282.84272 -282.8427,282.84272 -156.2097,0 -282.8427,-126.633 -282.8427,-282.84272 0,-156.20971 126.633,-282.84271 282.8427,-282.84271 156.2097,0 282.8427,126.633 282.8427,282.84271 z" />
      <g
         id="g3919">
        <path
           style="fill:#008000;fill-opacity:1;stroke:none"
           d="m 115.02971,165.35404 46.50458,0 -23.25229,-22.25767 -23.25229,22.25767 z"
           id="path3921"
           sodipodi:nodetypes="cccc"
           inkscape:connector-curvature="0" />
        <path
           sodipodi:nodetypes="cccc"
           id="path3923"
           d="m 210.15738,144.99306 46.50503,0 -23.25229,22.46429 -23.25274,-22.46429 z"
           style="fill:#008000;fill-opacity:1;stroke:none"
           inkscape:connector-curvature="0" />
      </g>
    </g>
    <g
       id="g3083"
       inkscape:label="Capa 1"
       transform="matrix(-0.85042772,0,0,-0.85042772,385.94788,1161.4968)"
       inkscape:export-filename="C:\Projects\Multiplo\Soft\Minibloq-RG\v1.0\Soft\Bin\Minibloq-RG.v1.0\Components\Minibloq\v1.0\Libs\CPP\Bloqs\CPP_while.v1.0\Images\BlockPressed.png"
       inkscape:export-xdpi="89.870003"
       inkscape:export-ydpi="89.870003">
      <rect
         ry="24.999962"
         rx="20.080832"
         y="282.62637"
         x="85.862961"
         height="301.02499"
         width="301.02499"
         id="rect3085"
         style="fill:#ff6600;fill-opacity:1;stroke:none" />
      <rect
         style="fill:url(#linearGradient3091);fill-opacity:1;stroke:none"
         id="rect3087"
         width="301.02499"
         height="301.02499"
         x="85.862961"
         y="282.62637"
         rx="20.080832"
         ry="24.999962" />
      <path
         id="path3089"
         d="m 104.99962,284.6567 c -10.85471,0.24277 -19.129481,13.85348 -17.520522,26.96871 0,6.51041 0,13.02081 0,19.53122 38.364402,19.86653 80.252212,26.85047 121.535732,30.63189 57.33876,4.16802 115.60079,0.95842 171.41686,-16.41905 6.32715,0.31321 4.82211,-6.90418 4.84614,-12.61909 -0.7385,-11.28321 1.608,-23.21972 -1.43076,-34.06245 -3.3479,-10.7118 -13.12763,-15.62628 -21.863,-14.06248 -85.66123,0.0209 -171.32445,-0.0417 -256.98445,0.0312 z"
         style="fill:url(#linearGradient3093);fill-opacity:1;stroke:none"
         inkscape:connector-curvature="0" />
    </g>
    <g
       transform="matrix(0.85042772,0,0,0.85042772,-16.092599,-214.83613)"
       inkscape:label="Capa 1"
       id="g3071"
       inkscape:export-filename="C:\Projects\Multiplo\Soft\Minibloq-RG\v1.0\Soft\Bin\Minibloq-RG.v1.0\Components\Minibloq\v1.0\Libs\CPP\Bloqs\CPP_while.v1.0\Images\BlockDefault.png"
       inkscape:export-xdpi="89.870003"
       inkscape:export-ydpi="89.870003">
      <rect
         style="fill:#ff6600;fill-opacity:1;stroke:none"
         id="rect3073"
         width="301.02499"
         height="301.02499"
         x="85.862961"
         y="282.62637"
         rx="20.080832"
         ry="24.999962" />
      <rect
         ry="24.999962"
         rx="20.080832"
         y="282.62637"
         x="85.862961"
         height="301.02499"
         width="301.02499"
         id="rect3075"
         style="fill:url(#linearGradient3079);fill-opacity:1;stroke:none" />
      <path
         inkscape:connector-curvature="0"
         style="fill:url(#linearGradient3081);fill-opacity:1;stroke:none"
         d="m 104.99962,284.6567 c -10.85471,0.24277 -19.129481,13.85348 -17.520522,26.96871 0,6.51041 0,13.02081 0,19.53122 38.364402,19.86653 80.252212,26.85047 121.535732,30.63189 57.33876,4.16802 115.60079,0.95842 171.41686,-16.41905 6.32715,0.31321 4.82211,-6.90418 4.84614,-12.61909 -0.7385,-11.28321 1.608,-23.21972 -1.43076,-34.06245 -3.3479,-10.7118 -13.12763,-15.62628 -21.863,-14.06248 -85.66123,0.0209 -171.32445,-0.0417 -256.98445,0.0312 z"
         id="path3077" />
    </g>
    <g
       id="g3874">
      <path
         transform="matrix(0.2611133,0,0,-0.2611133,593.23474,310.13654)"
         sodipodi:type="arc"
         style="fill:#ff6600;fill-opacity:1;stroke:#004959;stroke-width:0.35433072;stroke-miterlimit:4;stroke-opacity:1;stroke-dasharray:none"
         id="path3926"
         sodipodi:cx="-1563.7162"
         sodipodi:cy="599.81384"
         sodipodi:rx="282.84271"
         sodipodi:ry="282.84271"
         d="m -1280.8735,599.81384 a 282.84271,282.84271 0 1 1 -565.6854,0 282.84271,282.84271 0 1 1 565.6854,0 z" />
      <path
         style="fill:#008000;fill-opacity:1;stroke:#004959;stroke-width:0.07107499000000001;stroke-miterlimit:4;stroke-opacity:1;stroke-dasharray:none"
         d="m 184.9246,210.25356 c -31.33404,0 -56.72976,-25.40249 -56.72976,-56.73648 l 56.72976,0 37.77515,42.33119 c -0.22477,0.20063 -0.4536,0.40003 -0.68107,0.59672 -0.27397,0.23709 -0.54974,0.47017 -0.82867,0.70202 -0.12367,0.10309 -0.24689,0.20694 -0.37191,0.3089 -0.0361,0.0284 -0.0704,0.0558 -0.10516,0.0842 -0.0406,0.0325 -0.079,0.0659 -0.11915,0.0983 -0.29744,0.24016 -0.59758,0.4753 -0.89863,0.70901 -0.33986,0.26327 -0.68062,0.52419 -1.025,0.77924 -0.005,0 -0.005,0.005 -0.005,0.007 -0.005,0.005 -0.0135,0.009 -0.0181,0.014 -0.34076,0.25185 -0.67927,0.50045 -1.02545,0.74417 -1.41044,0.99435 -2.86377,1.92191 -4.3523,2.77996 -0.3719,0.21452 -0.74652,0.42598 -1.12339,0.63179 -6.02543,3.29336 -12.61549,5.4724 -19.44521,6.41638 -0.42697,0.059 -0.8562,0.11216 -1.28498,0.16149 -0.36288,0.0415 -0.72395,0.0775 -1.08773,0.1123 -0.0659,0.006 -0.13134,0.0149 -0.19724,0.0212 -0.31549,0.0289 -0.63098,0.0535 -0.94692,0.0773 -0.34573,0.0257 -0.69281,0.0438 -1.03899,0.0632 -0.15707,0.009 -0.31368,0.0208 -0.47075,0.028 -0.0451,0 -0.0889,0.005 -0.13315,0.007 -0.37958,0.0176 -0.76412,0.0325 -1.1446,0.042 -0.48655,0.0122 -0.97716,0.0212 -1.46732,0.0212 z m 0,-56.73648 -37.76839,-42.33124 c 0.056,-0.0497 0.11284,-0.0978 0.1688,-0.14741 0.22883,-0.20296 0.46218,-0.40444 0.69507,-0.60371 0.12593,-0.10792 0.2523,-0.21624 0.37868,-0.32294 0.22161,-0.1864 0.44322,-0.37145 0.66708,-0.55461 0.0654,-0.0535 0.13044,-0.10819 0.19634,-0.16144 0.29698,-0.24012 0.59712,-0.47531 0.89862,-0.70902 0.33896,-0.26336 0.67972,-0.52347 1.025,-0.77924 0.009,-0.007 0.0181,-0.014 0.0271,-0.0212 0.34077,-0.25175 0.67927,-0.50044 1.025,-0.74417 1.4109,-0.99435 2.86422,-1.92191 4.3523,-2.77996 0.37191,-0.21448 0.74652,-0.42593 1.1234,-0.63179 6.02588,-3.29336 12.61639,-5.4724 19.44566,-6.41638 0.42697,-0.059 0.8562,-0.11211 1.28497,-0.16149 0.36288,-0.042 0.72351,-0.0775 1.08819,-0.11229 0.23154,-0.0221 0.46218,-0.0438 0.69462,-0.0632 0.14939,-0.0126 0.29924,-0.0239 0.44954,-0.0352 0.34482,-0.0257 0.6919,-0.0438 1.03899,-0.0631 0.15661,-0.009 0.31323,-0.0208 0.46985,-0.028 0.0451,0 0.0894,-0.005 0.13359,-0.007 0.38139,-0.0176 0.76142,-0.0325 1.14461,-0.042 0.4861,-0.0126 0.97039,-0.0212 1.46009,-0.0212 0.48926,0 0.98077,0.009 1.46687,0.0212 0.48655,0.0126 0.96948,0.0316 1.45332,0.0561 29.97685,1.51959 53.81634,26.30441 53.81634,56.65922 l -56.73653,0 z"
         id="path3928"
         inkscape:connector-curvature="0" />
      <path
         d="m -1280.8735,599.81384 a 282.84271,282.84271 0 1 1 -565.6854,0 282.84271,282.84271 0 1 1 565.6854,0 z"
         sodipodi:ry="282.84271"
         sodipodi:rx="282.84271"
         sodipodi:cy="599.81384"
         sodipodi:cx="-1563.7162"
         id="path3930"
         style="fill:#ff6600;fill-opacity:1;stroke:none"
         sodipodi:type="arc"
         transform="matrix(0.14286018,0,0,-0.14286018,408.32044,239.20668)" />
      <g
         id="g3094">
        <path
           inkscape:connector-curvature="0"
           sodipodi:nodetypes="cccc"
           id="path3932"
           d="m 115.02971,165.35404 46.50458,0 -23.25229,-22.25767 -23.25229,22.25767 z"
           style="fill:#008000;fill-opacity:1;stroke:none" />
        <path
           inkscape:connector-curvature="0"
           style="fill:#008000;fill-opacity:1;stroke:none"
           d="m 210.15738,144.99306 46.50503,0 -23.25229,22.46429 -23.25274,-22.46429 z"
           id="path3934"
           sodipodi:nodetypes="cccc" />
      </g>
    </g>
    <g
       id="g3882"
       transform="translate(-7.8833655e-6,639.62633)">
      <path
         d="m -1280.8735,599.81384 c 0,156.20972 -126.633,282.84272 -282.8427,282.84272 -156.2097,0 -282.8427,-126.633 -282.8427,-282.84272 0,-156.20971 126.633,-282.84271 282.8427,-282.84271 156.2097,0 282.8427,126.633 282.8427,282.84271 z"
         sodipodi:ry="282.84271"
         sodipodi:rx="282.84271"
         sodipodi:cy="599.81384"
         sodipodi:cx="-1563.7162"
         id="path3884"
         style="fill:#ff6600;fill-opacity:1;stroke:#004959;stroke-width:0.35433072;stroke-miterlimit:4;stroke-opacity:1;stroke-dasharray:none"
         sodipodi:type="arc"
         transform="matrix(0.2611133,0,0,-0.2611133,593.23474,310.13654)" />
      <path
         inkscape:connector-curvature="0"
         id="path3886"
         d="m 184.9246,210.25356 c -31.33404,0 -56.72976,-25.40249 -56.72976,-56.73648 l 56.72976,0 37.77515,42.33119 c -0.22477,0.20063 -0.4536,0.40003 -0.68107,0.59672 -0.27397,0.23709 -0.54974,0.47017 -0.82867,0.70202 -0.12367,0.10309 -0.24689,0.20694 -0.37191,0.3089 -0.0361,0.0284 -0.0704,0.0558 -0.10516,0.0842 -0.0406,0.0325 -0.079,0.0659 -0.11915,0.0983 -0.29744,0.24016 -0.59758,0.4753 -0.89863,0.70901 -0.33986,0.26327 -0.68062,0.52419 -1.025,0.77924 -0.005,0 -0.005,0.005 -0.005,0.007 -0.005,0.005 -0.0135,0.009 -0.0181,0.014 -0.34076,0.25185 -0.67927,0.50045 -1.02545,0.74417 -1.41044,0.99435 -2.86377,1.92191 -4.3523,2.77996 -0.3719,0.21452 -0.74652,0.42598 -1.12339,0.63179 -6.02543,3.29336 -12.61549,5.4724 -19.44521,6.41638 -0.42697,0.059 -0.8562,0.11216 -1.28498,0.16149 -0.36288,0.0415 -0.72395,0.0775 -1.08773,0.1123 -0.0659,0.006 -0.13134,0.0149 -0.19724,0.0212 -0.31549,0.0289 -0.63098,0.0535 -0.94692,0.0773 -0.34573,0.0257 -0.69281,0.0438 -1.03899,0.0632 -0.15707,0.009 -0.31368,0.0208 -0.47075,0.028 -0.0451,0 -0.0889,0.005 -0.13315,0.007 -0.37958,0.0176 -0.76412,0.0325 -1.1446,0.042 -0.48655,0.0122 -0.97716,0.0212 -1.46732,0.0212 z m 0,-56.73648 -37.76839,-42.33124 c 0.056,-0.0497 0.11284,-0.0978 0.1688,-0.14741 0.22883,-0.20296 0.46218,-0.40444 0.69507,-0.60371 0.12593,-0.10792 0.2523,-0.21624 0.37868,-0.32294 0.22161,-0.1864 0.44322,-0.37145 0.66708,-0.55461 0.0654,-0.0535 0.13044,-0.10819 0.19634,-0.16144 0.29698,-0.24012 0.59712,-0.47531 0.89862,-0.70902 0.33896,-0.26336 0.67972,-0.52347 1.025,-0.77924 0.009,-0.007 0.0181,-0.014 0.0271,-0.0212 0.34077,-0.25175 0.67927,-0.50044 1.025,-0.74417 1.4109,-0.99435 2.86422,-1.92191 4.3523,-2.77996 0.37191,-0.21448 0.74652,-0.42593 1.1234,-0.63179 6.02588,-3.29336 12.61639,-5.4724 19.44566,-6.41638 0.42697,-0.059 0.8562,-0.11211 1.28497,-0.16149 0.36288,-0.042 0.72351,-0.0775 1.08819,-0.11229 0.23154,-0.0221 0.46218,-0.0438 0.69462,-0.0632 0.14939,-0.0126 0.29924,-0.0239 0.44954,-0.0352 0.34482,-0.0257 0.6919,-0.0438 1.03899,-0.0631 0.15661,-0.009 0.31323,-0.0208 0.46985,-0.028 0.0451,0 0.0894,-0.005 0.13359,-0.007 0.38139,-0.0176 0.76142,-0.0325 1.14461,-0.042 0.4861,-0.0126 0.97039,-0.0212 1.46009,-0.0212 0.48926,0 0.98077,0.009 1.46687,0.0212 0.48655,0.0126 0.96948,0.0316 1.45332,0.0561 29.97685,1.51959 53.81634,26.30441 53.81634,56.65922 l -56.73653,0 z"
         style="fill:#008000;fill-opacity:1;stroke:#004959;stroke-width:0.07107499;stroke-miterlimit:4;stroke-opacity:1;stroke-dasharray:none" />
      <path
         transform="matrix(0.14286018,0,0,-0.14286018,408.32044,239.20668)"
         sodipodi:type="arc"
         style="fill:#ff6600;fill-opacity:1;stroke:none"
         id="path3888"
         sodipodi:cx="-1563.7162"
         sodipodi:cy="599.81384"
         sodipodi:rx="282.84271"
         sodipodi:ry="282.84271"
         d="m -1280.8735,599.81384 c 0,156.20972 -126.633,282.84272 -282.8427,282.84272 -156.2097,0 -282.8427,-126.633 -282.8427,-282.84272 0,-156.20971 126.633,-282.84271 282.8427,-282.84271 156.2097,0 282.8427,126.633 282.8427,282.84271 z" />
      <g
         id="g3890">
        <path
           style="fill:#008000;fill-opacity:1;stroke:none"
           d="m 115.02971,165.35404 46.50458,0 -23.25229,-22.25767 -23.25229,22.25767 z"
           id="path3892"
           sodipodi:nodetypes="cccc"
           inkscape:connector-curvature="0" />
        <path
           sodipodi:nodetypes="cccc"
           id="path3894"
           d="m 210.15738,144.99306 46.50503,0 -23.25229,22.46429 -23.25274,-22.46429 z"
           style="fill:#008000;fill-opacity:1;stroke:none"
           inkscape:connector-curvature="0" />
      </g>
    </g>
    <g
       id="g3896"
       transform="translate(-5.0158325e-6,309.8132)">
      <path
         transform="matrix(0.2611133,0,0,-0.2611133,593.23474,310.13654)"
         sodipodi:type="arc"
         style="fill:#ff6600;fill-opacity:1;stroke:#004959;stroke-width:0.35433072;stroke-miterlimit:4;stroke-opacity:1;stroke-dasharray:none"
         id="path3898"
         sodipodi:cx="-1563.7162"
         sodipodi:cy="599.81384"
         sodipodi:rx="282.84271"
         sodipodi:ry="282.84271"
         d="m -1280.8735,599.81384 c 0,156.20972 -126.633,282.84272 -282.8427,282.84272 -156.2097,0 -282.8427,-126.633 -282.8427,-282.84272 0,-156.20971 126.633,-282.84271 282.8427,-282.84271 156.2097,0 282.8427,126.633 282.8427,282.84271 z" />
      <path
         style="fill:#008000;fill-opacity:1;stroke:#004959;stroke-width:0.07107499;stroke-miterlimit:4;stroke-opacity:1;stroke-dasharray:none"
         d="m 184.9246,210.25356 c -31.33404,0 -56.72976,-25.40249 -56.72976,-56.73648 l 56.72976,0 37.77515,42.33119 c -0.22477,0.20063 -0.4536,0.40003 -0.68107,0.59672 -0.27397,0.23709 -0.54974,0.47017 -0.82867,0.70202 -0.12367,0.10309 -0.24689,0.20694 -0.37191,0.3089 -0.0361,0.0284 -0.0704,0.0558 -0.10516,0.0842 -0.0406,0.0325 -0.079,0.0659 -0.11915,0.0983 -0.29744,0.24016 -0.59758,0.4753 -0.89863,0.70901 -0.33986,0.26327 -0.68062,0.52419 -1.025,0.77924 -0.005,0 -0.005,0.005 -0.005,0.007 -0.005,0.005 -0.0135,0.009 -0.0181,0.014 -0.34076,0.25185 -0.67927,0.50045 -1.02545,0.74417 -1.41044,0.99435 -2.86377,1.92191 -4.3523,2.77996 -0.3719,0.21452 -0.74652,0.42598 -1.12339,0.63179 -6.02543,3.29336 -12.61549,5.4724 -19.44521,6.41638 -0.42697,0.059 -0.8562,0.11216 -1.28498,0.16149 -0.36288,0.0415 -0.72395,0.0775 -1.08773,0.1123 -0.0659,0.006 -0.13134,0.0149 -0.19724,0.0212 -0.31549,0.0289 -0.63098,0.0535 -0.94692,0.0773 -0.34573,0.0257 -0.69281,0.0438 -1.03899,0.0632 -0.15707,0.009 -0.31368,0.0208 -0.47075,0.028 -0.0451,0 -0.0889,0.005 -0.13315,0.007 -0.37958,0.0176 -0.76412,0.0325 -1.1446,0.042 -0.48655,0.0122 -0.97716,0.0212 -1.46732,0.0212 z m 0,-56.73648 -37.76839,-42.33124 c 0.056,-0.0497 0.11284,-0.0978 0.1688,-0.14741 0.22883,-0.20296 0.46218,-0.40444 0.69507,-0.60371 0.12593,-0.10792 0.2523,-0.21624 0.37868,-0.32294 0.22161,-0.1864 0.44322,-0.37145 0.66708,-0.55461 0.0654,-0.0535 0.13044,-0.10819 0.19634,-0.16144 0.29698,-0.24012 0.59712,-0.47531 0.89862,-0.70902 0.33896,-0.26336 0.67972,-0.52347 1.025,-0.77924 0.009,-0.007 0.0181,-0.014 0.0271,-0.0212 0.34077,-0.25175 0.67927,-0.50044 1.025,-0.74417 1.4109,-0.99435 2.86422,-1.92191 4.3523,-2.77996 0.37191,-0.21448 0.74652,-0.42593 1.1234,-0.63179 6.02588,-3.29336 12.61639,-5.4724 19.44566,-6.41638 0.42697,-0.059 0.8562,-0.11211 1.28497,-0.16149 0.36288,-0.042 0.72351,-0.0775 1.08819,-0.11229 0.23154,-0.0221 0.46218,-0.0438 0.69462,-0.0632 0.14939,-0.0126 0.29924,-0.0239 0.44954,-0.0352 0.34482,-0.0257 0.6919,-0.0438 1.03899,-0.0631 0.15661,-0.009 0.31323,-0.0208 0.46985,-0.028 0.0451,0 0.0894,-0.005 0.13359,-0.007 0.38139,-0.0176 0.76142,-0.0325 1.14461,-0.042 0.4861,-0.0126 0.97039,-0.0212 1.46009,-0.0212 0.48926,0 0.98077,0.009 1.46687,0.0212 0.48655,0.0126 0.96948,0.0316 1.45332,0.0561 29.97685,1.51959 53.81634,26.30441 53.81634,56.65922 l -56.73653,0 z"
         id="path3900"
         inkscape:connector-curvature="0" />
      <path
         d="m -1280.8735,599.81384 c 0,156.20972 -126.633,282.84272 -282.8427,282.84272 -156.2097,0 -282.8427,-126.633 -282.8427,-282.84272 0,-156.20971 126.633,-282.84271 282.8427,-282.84271 156.2097,0 282.8427,126.633 282.8427,282.84271 z"
         sodipodi:ry="282.84271"
         sodipodi:rx="282.84271"
         sodipodi:cy="599.81384"
         sodipodi:cx="-1563.7162"
         id="path3902"
         style="fill:#ff6600;fill-opacity:1;stroke:none"
         sodipodi:type="arc"
         transform="matrix(0.14286018,0,0,-0.14286018,408.32044,239.20668)" />
      <g
         id="g3904">
        <path
           inkscape:connector-curvature="0"
           sodipodi:nodetypes="cccc"
           id="path3906"
           d="m 115.02971,165.35404 46.50458,0 -23.25229,-22.25767 -23.25229,22.25767 z"
           style="fill:#008000;fill-opacity:1;stroke:none" />
        <path
           inkscape:connector-curvature="0"
           style="fill:#008000;fill-opacity:1;stroke:none"
           d="m 210.15738,144.99306 46.50503,0 -23.25229,22.46429 -23.25274,-22.46429 z"
           id="path3908"
           sodipodi:nodetypes="cccc" />
      </g>
    </g>
  </g>
</svg>
